<?xml version="1.0" encoding="UTF-8" standalone="no"?>
<svg
   xmlns:dc="http://purl.org/dc/elements/1.1/"
   xmlns:cc="http://creativecommons.org/ns#"
   xmlns:rdf="http://www.w3.org/1999/02/22-rdf-syntax-ns#"
   xmlns:svg="http://www.w3.org/2000/svg"
   xmlns="http://www.w3.org/2000/svg"
   xmlns:sodipodi="http://sodipodi.sourceforge.net/DTD/sodipodi-0.dtd"
   xmlns:inkscape="http://www.inkscape.org/namespaces/inkscape"
   width="446"
   height="122"
   viewBox="0 0 446 122"
   enable-background="new 0 0 512 512"
   id="Armor"
   version="1.1"
   xml:space="preserve"
   sodipodi:docname="logo.svg"
   inkscape:version="0.92.4 (5da689c313, 2019-01-14)"><metadata
     id="metadata3871"><rdf:RDF><cc:Work
         rdf:about=""><dc:format>image/svg+xml</dc:format><dc:type
           rdf:resource="http://purl.org/dc/dcmitype/StillImage" /><dc:title></dc:title></cc:Work></rdf:RDF></metadata><defs
     id="defs3869" /><sodipodi:namedview
     pagecolor="#ffffff"
     bordercolor="#666666"
     borderopacity="1"
     objecttolerance="10"
     gridtolerance="10"
     guidetolerance="10"
     inkscape:pageopacity="0"
     inkscape:pageshadow="2"
     inkscape:window-width="3440"
     inkscape:window-height="1377"
     id="namedview3867"
     showgrid="false"
     inkscape:zoom="2.359375"
     inkscape:cx="185.43046"
     inkscape:cy="210.5306"
     inkscape:window-x="-8"
     inkscape:window-y="-8"
     inkscape:window-maximized="1"
     inkscape:current-layer="Armor" /><linearGradient
     gradientUnits="userSpaceOnUse"
     id="SVGID_1_"
     x1="255.8799"
     x2="255.8799"
     y1="467.65631"
     y2="161.3456"
     gradientTransform="matrix(0.24149578,0,0,0.24149578,11.925552,181.27306)"><stop
       offset="0"
       style="stop-color:#CC5697"
       id="stop3793" /><stop
       offset="1"
       style="stop-color:#8E3979"
       id="stop3795" /></linearGradient><g
     id="g3907"
     transform="translate(-8.4768212,-181.89404)"><path
       inkscape:connector-curvature="0"
       style="fill:url(#SVGID_1_);stroke-width:0.24149577"
       id="path3798"
       d="m 105.85244,200.33843 c -0.18137,-2.64003 -2.37584,-4.68864 -5.02215,-4.68864 H 73.719492 47.20881 c -2.629648,0 -4.815909,2.02398 -5.018766,4.64565 l -5.388736,69.63121 c -0.08283,4.56161 1.898881,8.92447 5.418199,11.82822 5.659936,4.67053 15.45742,11.77074 28.473801,17.46135 1.925929,0.84161 4.127163,0.84161 6.05285,0 13.01614,-5.69036 22.813865,-12.79082 28.473802,-17.46135 3.51883,-2.90375 5.50055,-7.26685 5.41796,-11.82822 z" /><path
       style="fill:#819fea;stroke-width:0.24149577"
       inkscape:connector-curvature="0"
       id="path3800"
       d="m 98.00479,233.09975 c 0,0 -2.643413,11.35682 -2.163802,21.14223 0.05096,1.03626 -0.376009,2.03798 -1.135755,2.74436 -1.723555,1.60208 -5.283203,4.64203 -10.911504,8.22389 2.42e-4,0 -2.494893,-26.36095 14.211061,-32.11048 z" /><path
       style="fill:#ffffff;stroke-width:0.24149577"
       inkscape:connector-curvature="0"
       id="path3802"
       d="m 49.492152,233.09975 c 0,0 2.643413,11.35682 2.163802,21.14223 -0.05096,1.03626 0.376009,2.03798 1.135755,2.74436 1.723555,1.60208 5.283203,4.64203 10.911504,8.22389 -2.42e-4,0 2.494893,-26.36095 -14.211061,-32.11048 z" /><path
       style="fill:#c7daff;stroke-width:0.24149577"
       inkscape:connector-curvature="0"
       id="path3804"
       d="m 54.87292,258.81108 c 1.992098,1.66825 4.894636,3.8946 8.830051,6.39915 0,0 1.076588,-15.42964 -6.331778,-26.57854 1.479403,7.85513 3.953286,16.19954 -2.498273,20.17939 z" /><path
       style="fill:#819fea;stroke-width:0.24149577"
       inkscape:connector-curvature="0"
       id="path3806"
       d="m 61.971688,245.04823 c -1.852514,-6.19581 -5.474468,-9.53763 -12.479777,-11.94848 0,0 0.33109,1.42506 0.737528,3.69488 1.68564,1.1104 6.434172,3.76178 11.742249,8.2536 z" /><path
       style="fill:#ffffff;stroke-width:0.24149577"
       inkscape:connector-curvature="0"
       id="path3808"
       d="m 40.085409,190.14779 6.421614,6.51314 c 1.46926,1.49052 2.286482,3.50411 2.246635,5.59667 -0.124129,6.4943 -2.24905,19.87027 -17.699467,19.5003 0,0 -12.283441,0.1106 -17.883245,-13.05067 -0.444594,-1.04496 0.157938,-2.25099 1.254329,-2.54658 4.29621,-1.15773 14.423577,-4.87024 21.199224,-15.25529 0.48275,-0.74018 1.212791,-1.31566 2.079278,-1.48954 0.729559,-0.14659 1.602325,-0.0587 2.381632,0.73197 z" /><path
       style="fill:#819fea;stroke-width:0.24149577"
       inkscape:connector-curvature="0"
       id="path3810"
       d="m 18.512832,208.07837 c 7.001929,0.17895 13.482227,-3.60263 17.167694,-9.55889 1.519733,-2.45577 2.863657,-5.57565 3.144516,-9.09859 -0.38905,-0.0889 -0.77182,-0.0756 -1.121265,-0.005 -0.866487,0.17387 -1.596528,0.7496 -2.079278,1.48954 -6.775889,10.38505 -16.903014,14.09756 -21.199224,15.25529 -0.606637,0.16349 -1.05268,0.60905 -1.263023,1.14855 1.266404,0.33786 3.134615,0.71266 5.35058,0.76941 z" /><path
       style="fill:#819fea;stroke-width:0.24149577"
       inkscape:connector-curvature="0"
       id="path3812"
       d="m 85.318051,248.44246 c 3.949422,-5.75098 9.792412,-10.00227 11.911054,-11.43169 0.423584,-2.39515 0.775685,-3.91078 0.775685,-3.91078 -7.269023,2.50141 -10.900637,8.90564 -12.686739,15.34247 z" /><path
       style="fill:#ffffff;stroke-width:0.24149577"
       inkscape:connector-curvature="0"
       id="path3814"
       d="m 94.659107,235.43525 c -7.888942,4.50607 -20.890592,13.8976 -20.94203,13.93479 -0.05168,-0.0372 -13.05333,-9.42872 -20.942031,-13.93479 -0.108432,-0.0618 -0.219037,0.077 -0.133547,0.16833 2.160904,2.30531 9.962183,11.85333 9.177805,28.84015 -0.03526,0.76602 0.294142,1.50089 0.9073,1.96167 1.77282,1.33257 5.821014,4.15831 10.987816,6.39625 0,0 9.252669,-5.08227 10.992888,-6.39625 0.61195,-0.46223 0.942558,-1.19565 0.9073,-1.96167 -0.784137,-16.98706 7.016901,-26.53484 9.178047,-28.84015 0.08525,-0.091 -0.02536,-0.23015 -0.133548,-0.16833 z" /><path
       style="fill:#c7daff;stroke-width:0.24149577"
       inkscape:connector-curvature="0"
       id="path3816"
       d="m 94.664662,235.43211 c -7.888218,4.50487 -20.896147,13.90098 -20.947585,13.93817 h -2.42e-4 v 9.29059 c 0,3.99289 -3.11602,7.40281 -7.107945,7.50859 -1.798419,0.0476 -3.488165,-0.29922 -4.558716,-0.58781 0.154557,0.32288 0.380356,0.61099 0.67643,0.83341 1.773545,1.33305 5.823429,4.16024 10.992888,6.39819 v -0.0143 c 0.09515,-0.0524 9.256774,-5.08663 10.987816,-6.3936 0.61195,-0.46223 0.942558,-1.19565 0.9073,-1.96167 -0.784379,-16.98971 7.019074,-26.53773 9.179013,-28.84136 0.08477,-0.0903 -0.02101,-0.23184 -0.128959,-0.17026 z" /><path
       style="fill:#819fea;stroke-width:0.24149577"
       inkscape:connector-curvature="0"
       id="path3818"
       d="m 94.659107,235.43525 c -7.888942,4.50607 -20.890592,13.8976 -20.94203,13.93479 -0.05168,-0.0372 -13.05333,-9.42872 -20.942031,-13.93479 -0.108432,-0.0618 -0.219037,0.077 -0.133547,0.16833 0.622093,0.66387 2.578208,3.33119 3.796072,5.20061 4.201543,2.93321 9.433066,6.94445 17.279264,13.01203 8.07103,-6.06758 12.906259,-9.19809 16.832497,-11.4155 1.217863,-1.86942 3.620746,-6.13327 4.243081,-6.79714 0.08549,-0.091 -0.02512,-0.23015 -0.133306,-0.16833 z" /><path
       style="fill:#ffffff;stroke-width:0.24149577"
       inkscape:connector-curvature="0"
       id="path3820"
       d="m 101.26402,226.06039 c -5.383668,4.15831 -27.541872,11.36334 -27.54477,11.36431 -0.0029,-9.7e-4 -22.161101,-7.206 -27.544525,-11.36431 -0.145864,-0.11278 -0.343407,0.0362 -0.276513,0.20817 l 2.459634,6.32381 c 0.258884,0.66556 0.708308,1.24008 1.29152,1.65207 l 24.069884,16.99768 v 2.4e-4 -2.4e-4 l 2.42e-4,2.4e-4 v -2.4e-4 l 24.069642,-16.99768 c 0.583212,-0.41199 1.032395,-0.98651 1.29152,-1.65207 l 2.459636,-6.32381 c 0.0666,-0.17195 -0.13065,-0.32095 -0.27627,-0.20817 z" /><path
       style="fill:#deeeff;stroke-width:0.24149577"
       inkscape:connector-curvature="0"
       id="path3822"
       d="m 67.470547,246.82951 6.248945,4.41285 v -13.81791 c 0,0 -10.288687,-3.34616 -18.548808,-6.794 4.595423,3.6862 10.033425,9.24905 12.299863,16.19906 z" /><path
       style="fill:#819fea;stroke-width:0.24149577"
       inkscape:connector-curvature="0"
       id="path3824"
       d="m 60.340142,186.34447 c 0,0 -1.89067,6.61747 3.68257,11.90985 0.761194,0.72304 0.949802,1.86652 0.501586,2.81608 l -4.722208,10.00759 c 0,0 -11.611842,0.5424 -15.733933,-6.83433 l 0.433968,-6.7259 c 0,4.8e-4 7.376247,-7.48492 15.838017,-11.17329 z" /><path
       style="fill:#8c266b;stroke-width:0.24149577"
       inkscape:connector-curvature="0"
       id="path3826"
       d="m 42.54939,196.10791 c 0,0 4.243805,-5.0719 10.577032,-7.72111 1.049058,-0.43879 2.236009,0.1891 2.441039,1.30746 0.391948,2.13821 0.983613,5.68964 1.341026,9.37994 0.465121,4.79973 -3.301247,9.1085 -8.122952,9.04064 -0.220002,-0.003 -0.445076,-0.013 -0.674497,-0.0302 z" /><path
       style="fill:#819fea;stroke-width:0.24149577"
       inkscape:connector-curvature="0"
       id="path3828"
       d="m 87.1568,186.34447 c 0,0 1.89067,6.61747 -3.68257,11.90985 -0.761194,0.72304 -0.949802,1.86652 -0.501586,2.81608 l 4.722208,10.00759 c 0,0 11.611842,0.5424 15.733938,-6.83433 l -0.43397,-6.7259 c 0,4.8e-4 -7.376491,-7.48492 -15.83802,-11.17329 z" /><path
       style="fill:#8c266b;stroke-width:0.24149577"
       inkscape:connector-curvature="0"
       id="path3830"
       d="m 104.94755,196.10791 c 0,0 -4.2438,-5.0719 -10.57703,-7.72111 -1.049058,-0.43879 -2.236009,0.1891 -2.441039,1.30746 -0.391948,2.13821 -0.983613,5.68964 -1.341268,9.37994 -0.464879,4.79973 3.301489,9.1085 8.123194,9.04064 0.220002,-0.003 0.445076,-0.013 0.674497,-0.0302 z" /><path
       style="fill:#5071ba;stroke-width:0.24149577"
       inkscape:connector-curvature="0"
       id="path3832"
       d="m 89.163146,190.37625 c -0.291243,-1.3746 -0.905126,-2.79097 -2.064547,-4.03178 0,0 -3.136064,7.05941 -13.379107,7.05941 -10.243285,0 -13.379108,-7.05941 -13.379108,-7.05941 -1.159663,1.24105 -1.773545,2.65718 -2.064789,4.03178 -0.992548,4.68622 1.757123,9.41157 6.225278,11.13851 4.333642,1.67501 9.218619,1.50427 9.218619,1.50427 0,0 4.884976,0.17074 9.218376,-1.50427 4.468155,-1.72694 7.218068,-6.45205 6.225278,-11.13851 z" /><path
       style="fill:#ffffff;stroke-width:0.24149577"
       inkscape:connector-curvature="0"
       id="path3834"
       d="m 85.536846,201.02041 c -0.493134,-0.95946 -1.481577,-1.56271 -2.560338,-1.56271 h -9.257016 -9.2575 c -1.078761,0 -2.066962,0.60325 -2.560096,1.56271 l -4.319635,8.40309 c 6.147275,6.89229 16.136989,8.28934 16.136989,8.28934 0,0 9.989714,-1.39705 16.136748,-8.28934 z" /><path
       style="fill:#c7daff;stroke-width:0.24149577"
       inkscape:connector-curvature="0"
       id="path3836"
       d="m 89.856239,209.4235 -4.319393,-8.40309 c -0.493134,-0.95946 -1.481577,-1.56271 -2.560338,-1.56271 h -9.257016 v 18.25514 c 0,0 9.989714,-1.39729 16.136747,-8.28934 z" /><path
       style="fill:#819fea;stroke-width:0.24149577"
       inkscape:connector-curvature="0"
       id="path3838"
       d="m 88.024252,205.74649 c -1.209652,0.61485 -3.500481,1.74843 -6.408332,2.9221 -5.075516,2.04836 -10.737626,2.04498 -15.80783,-0.0159 -2.873317,-1.16788 -5.131302,-2.29421 -6.3354,-2.90616 l -1.890188,3.67701 c 6.147275,6.89229 16.13699,8.28934 16.13699,8.28934 0,0 10.047673,-1.39705 16.195189,-8.28934 z" /><path
       style="fill:#c7daff;stroke-width:0.24149577"
       inkscape:connector-curvature="0"
       id="path3840"
       d="m 101.26402,226.06039 c -5.383185,4.15807 -27.539457,11.36237 -27.544528,11.36431 v 13.81766 l 24.069642,-16.99768 c 0.583212,-0.41199 1.032395,-0.98651 1.29152,-1.65207 l 2.459636,-6.32381 c 0.0666,-0.17219 -0.13065,-0.32119 -0.27627,-0.20841 z" /><path
       style="fill:#819fea;stroke-width:0.24149577"
       inkscape:connector-curvature="0"
       id="path3842"
       d="m 101.26402,226.06039 c -5.383668,4.15831 -27.541872,11.36334 -27.54477,11.36431 -0.0029,-9.7e-4 -22.161101,-7.206 -27.544525,-11.36431 -0.145864,-0.11278 -0.343407,0.0362 -0.276513,0.20817 l 1.26737,3.25874 c 4.22207,2.38622 17.959316,10.017 26.551012,13.22866 0,0 16.358441,-6.33371 26.542076,-13.19364 l 1.28114,-3.29376 c 0.0671,-0.17195 -0.13017,-0.32095 -0.27579,-0.20817 z" /><path
       style="fill:#ffffff;stroke-width:0.24149577"
       inkscape:connector-curvature="0"
       id="path3844"
       d="m 111.3327,219.2717 -9.56565,-11.47902 c -1.33136,-1.59725 -3.302935,-2.52073 -5.382214,-2.52073 -1.444145,0 -2.852789,0.44 -4.030564,1.27606 -3.200061,2.27175 -10.504101,6.94204 -18.63478,8.67936 -8.130922,-1.73756 -15.435203,-6.40785 -18.635022,-8.67936 -1.177775,-0.83606 -2.58642,-1.27606 -4.030565,-1.27606 -2.079278,0 -4.051091,0.92348 -5.382216,2.52073 L 36.1058,219.2717 c 12.907707,13.37428 37.61345,20.06661 37.61345,20.06661 0,0 24.705743,-6.69233 37.61345,-20.06661 z" /><path
       style="fill:#c7daff;stroke-width:0.24149577"
       inkscape:connector-curvature="0"
       id="path3846"
       d="m 54.612587,231.76403 c -4.981092,-4.33098 -7.775922,-10.7736 -7.095387,-17.33915 0.469467,-4.52974 2.388393,-7.54771 3.712031,-9.13989 -0.05892,-0.001 -0.116401,-0.0135 -0.175809,-0.0135 -2.079278,0 -4.051091,0.92347 -5.382216,2.52073 l -9.565889,11.47902 c 5.230074,5.41916 12.39477,9.74 19.068989,12.96373 -0.190298,-0.15649 -0.380839,-0.31346 -0.561719,-0.47092 z" /><path
       style="fill:#c7daff;stroke-width:0.24149577"
       inkscape:connector-curvature="0"
       id="path3848"
       d="m 73.719492,239.33807 v -13.73411 c -0.89595,5.11899 -3.524873,10.39543 -10.578723,10.10974 6.115881,2.41327 10.578723,3.62437 10.578723,3.62437 z" /><path
       style="fill:#c7daff;stroke-width:0.24149577"
       inkscape:connector-curvature="0"
       id="path3850"
       d="m 111.3327,219.2717 -9.56565,-11.47902 c -1.33136,-1.59725 -3.302935,-2.52073 -5.382214,-2.52073 -1.444145,0 -2.852789,0.44 -4.030564,1.27606 -3.200061,2.27175 -10.504101,6.94204 -18.63478,8.67936 v 24.11094 c 0.0063,-0.002 24.707191,-6.69402 37.613208,-20.06661 z" /><path
       style="fill:#deeeff;stroke-width:0.24149577"
       inkscape:connector-curvature="0"
       id="path3852"
       d="m 48.753658,202.2576 c 0.03985,-2.0928 -0.777375,-4.10615 -2.246635,-5.59667 l -6.421614,-6.51314 c -0.779549,-0.79066 -1.652315,-0.87856 -2.38139,-0.73221 -0.0413,0.008 -0.078,0.0285 -0.118575,0.0384 -0.422376,1.79673 -0.789932,3.45001 -0.786793,3.75164 0.184503,17.50313 -6.746667,25.03104 -10.364999,27.76501 2.68326,0.80129 4.620539,0.78704 4.620539,0.78704 15.450658,0.37021 17.575338,-13.00576 17.699467,-19.50006 z" /><path
       style="fill:#819fea;stroke-width:0.24149577"
       inkscape:connector-curvature="0"
       id="path3854"
       d="m 37.704019,189.41558 c -0.866487,0.17387 -1.596529,0.7496 -2.079279,1.48954 -2.163561,3.31574 -4.668838,5.94539 -7.21686,8.03481 2.282618,-0.40789 4.677773,-0.45063 6.801729,0.29004 0.158904,-0.23522 0.320948,-0.46802 0.470917,-0.71049 1.519733,-2.45577 2.863657,-5.57565 3.144516,-9.09859 -0.38905,-0.0889 -0.77182,-0.0754 -1.121023,-0.005 z" /><path
       style="fill:#ffffff;stroke-width:0.24149577"
       inkscape:connector-curvature="0"
       id="path3856"
       d="m 107.41153,190.14779 -6.42161,6.51314 c -1.469261,1.49052 -2.286483,3.50411 -2.246636,5.59667 0.124129,6.4943 2.249046,19.87027 17.699466,19.5003 0,0 12.28344,0.1106 17.88325,-13.05067 0.44459,-1.04496 -0.15794,-2.25099 -1.25433,-2.54658 -4.29621,-1.15773 -14.42382,-4.87024 -21.19923,-15.25529 -0.48275,-0.74018 -1.21279,-1.31566 -2.07928,-1.48954 -0.72955,-0.14659 -1.60232,-0.0587 -2.38163,0.73197 z" /><path
       style="fill:#deeeff;stroke-width:0.24149577"
       inkscape:connector-curvature="0"
       id="path3858"
       d="m 133.07142,206.16065 c -4.29621,-1.15773 -14.42381,-4.87024 -21.19922,-15.25529 -0.48275,-0.74018 -1.21279,-1.31566 -2.07928,-1.48954 -0.0613,-0.0123 -0.12533,-0.0201 -0.18836,-0.029 2.50986,4.78789 8.89066,19.0446 4.01607,32.27494 0.88822,0.0848 1.82643,0.12027 2.82236,0.0964 0,0 12.28344,0.11061 17.88325,-13.05067 0.44435,-1.0452 -0.15842,-2.25147 -1.25482,-2.54682 z" /><path
       style="fill:#819fea;stroke-width:0.24149577"
       inkscape:connector-curvature="0"
       id="path3860"
       d="m 128.98411,208.07837 c -7.00193,0.17895 -13.48223,-3.60263 -17.16794,-9.55889 -1.51949,-2.45577 -2.86341,-5.57565 -3.14451,-9.09859 0.38929,-0.0889 0.77182,-0.0756 1.12126,-0.005 0.86649,0.17387 1.59653,0.7496 2.07928,1.48954 6.77589,10.38505 16.90277,14.09756 21.19922,15.25529 0.60664,0.16349 1.05268,0.60905 1.26303,1.14855 -1.26616,0.33786 -3.13438,0.71266 -5.35034,0.76941 z" /><path
       style="fill:#ffffff;stroke-width:0.24149577"
       inkscape:connector-curvature="0"
       id="path3862"
       d="m 82.556546,217.21633 c -1.923755,-0.56438 -4.028149,0.70493 -5.050159,2.02059 -0.112296,0.14442 -0.184744,0.29608 -0.231595,0.44895 -1.16087,3.52656 1.13334,5.43606 1.279445,5.50465 1.690953,1.33885 3.455322,-1.37628 4.057612,-2.64003 0.689712,-1.44753 1.94549,-4.74708 -0.0553,-5.33416 z" /><path
       style="fill:#ffffff;stroke-width:0.24149577"
       inkscape:connector-curvature="0"
       id="path3864"
       d="m 87.364727,214.07568 c -0.03502,0 -0.06979,0 -0.104809,0 -0.674014,0 -1.319533,0.59239 -1.28838,1.28814 0.0314,0.69792 0.566308,1.28813 1.28838,1.28813 0.03502,0 0.06979,0 0.104809,0 0.674015,0 1.319533,-0.59263 1.28838,-1.28813 -0.03139,-0.69817 -0.566066,-1.28814 -1.28838,-1.28814 z" /></g><text
     xml:space="preserve"
     style="font-style:normal;font-weight:normal;font-size:59.92079163px;line-height:1.25;font-family:sans-serif;letter-spacing:0px;word-spacing:0px;fill:#f3f3f6;fill-opacity:1;stroke:none;stroke-width:1.4980197"
     x="135.43987"
     y="104.53995"
     id="text3911"><tspan
       sodipodi:role="line"
       id="tspan3909"
       x="135.43987"
       y="104.53995"
       style="font-style:normal;font-variant:normal;font-weight:normal;font-stretch:normal;font-size:127.83102417px;font-family:MagicMedieval;-inkscape-font-specification:'MagicMedieval, Normal';font-variant-ligatures:normal;font-variant-caps:normal;font-variant-numeric:normal;font-feature-settings:normal;text-align:start;writing-mode:lr-tb;text-anchor:start;fill:#f3f3f6;fill-opacity:1;stroke-width:1.4980197">Tarkil</tspan></text>
</svg>